<svg id="Layer_1" data-name="Layer 1" xmlns="http://www.w3.org/2000/svg" viewBox="0 0 512 512"><defs><style>.cls-1{fill:#199cf4;}.cls-2{fill:#fff;}.cls-3{fill:#f4607f;}.cls-4{opacity:0.1;}.cls-5{fill:#231f20;}</style></defs><title>eye-flat</title><path class="cls-1" d="M512,256l-7.75,11C499.74,273.34,392.84,422.4,256,422.4S12.26,273.34,7.75,267L0,256l7.75-11C12.26,238.66,119.16,89.6,256,89.6S499.74,238.66,504.25,245Z"/><ellipse class="cls-2" cx="256" cy="256" rx="135.55" ry="134.4"/><path class="cls-3" d="M309.56,262a37.05,37.05,0,0,0,0-52.66,37.65,37.65,0,0,0-53,0l-.53.53-.53-.53a37.68,37.68,0,0,0-53,0,37,37,0,0,0,0,52.66L256,313.6Z"/><rect class="cls-1" x="236.64" width="38.73" height="64"/><polygon class="cls-1" points="118.78 95.84 73.6 44.64 102.75 19.36 147.93 70.56 118.78 95.84"/><polygon class="cls-1" points="393.22 95.84 364.07 70.56 409.25 19.36 438.4 44.64 393.22 95.84"/><rect class="cls-1" x="236.64" y="448" width="38.73" height="64"/><polygon class="cls-1" points="102.75 492.64 73.6 467.36 118.78 416.16 147.93 441.44 102.75 492.64"/><polygon class="cls-1" points="409.25 492.64 364.07 441.44 393.22 416.16 438.4 467.36 409.25 492.64"/><g class="cls-4"><path class="cls-5" d="M512,256l-7.75,11C499.74,273.34,392.84,422.4,256,422.4V89.6C392.84,89.6,499.74,238.66,504.25,245Z"/></g></svg>